<svg width="12" height="13" viewBox="0 0 12 13" fill="none" xmlns="http://www.w3.org/2000/svg">
<g clip-path="url(#clip0_122_64)">
<path d="M6.02891 9.08524L3.68522 11.4289C3.40147 11.7028 3.0225 11.8558 2.62815 11.8558C2.23379 11.8558 1.85483 11.7028 1.57107 11.4289C1.4319 11.2903 1.32148 11.1256 1.24613 10.9442C1.17078 10.7628 1.132 10.5683 1.132 10.3719C1.132 10.1754 1.17078 9.98093 1.24613 9.79953C1.32148 9.61813 1.4319 9.4534 1.57107 9.31478L3.91476 6.97109C4.0285 6.85735 4.0924 6.70308 4.0924 6.54222C4.0924 6.38136 4.0285 6.22709 3.91476 6.11335C3.80102 5.99961 3.64675 5.93571 3.48589 5.93571C3.32503 5.93571 3.17076 5.99961 3.05702 6.11335L0.713332 8.46308C0.241186 8.97699 -0.0141644 9.65344 0.000606905 10.3512C0.0153782 11.0489 0.299129 11.7139 0.792602 12.2074C1.28608 12.7009 1.95111 12.9846 2.64884 12.9994C3.34656 13.0142 4.02301 12.7588 4.53692 12.2867L6.88665 9.94298C7.00039 9.82924 7.06429 9.67497 7.06429 9.51411C7.06429 9.35325 7.00039 9.19898 6.88665 9.08524C6.77291 8.9715 6.61864 8.9076 6.45778 8.9076C6.29692 8.9076 6.14265 8.9715 6.02891 9.08524V9.08524ZM11.2116 1.7884C10.7035 1.28343 10.0162 1 9.2998 1C8.58342 1 7.89614 1.28343 7.38801 1.7884L5.03828 4.13209C4.98196 4.18841 4.93728 4.25527 4.9068 4.32886C4.87632 4.40244 4.86064 4.48131 4.86064 4.56096C4.86064 4.64061 4.87632 4.71948 4.9068 4.79306C4.93728 4.86665 4.98196 4.93351 5.03828 4.98983C5.0946 5.04615 5.16146 5.09083 5.23505 5.12131C5.30863 5.15179 5.3875 5.16747 5.46715 5.16747C5.5468 5.16747 5.62567 5.15179 5.69925 5.12131C5.77284 5.09083 5.8397 5.04615 5.89602 4.98983L8.23971 2.64614C8.52346 2.37229 8.90243 2.21924 9.29678 2.21924C9.69114 2.21924 10.0701 2.37229 10.3539 2.64614C10.493 2.78476 10.6035 2.9495 10.6788 3.1309C10.7541 3.3123 10.7929 3.50679 10.7929 3.70322C10.7929 3.89965 10.7541 4.09414 10.6788 4.27554C10.6035 4.45694 10.493 4.62167 10.3539 4.76029L8.01017 7.10398C7.95355 7.16013 7.90862 7.22694 7.87795 7.30055C7.84728 7.37416 7.8315 7.45311 7.8315 7.53285C7.8315 7.61259 7.84728 7.69154 7.87795 7.76515C7.90862 7.83876 7.95355 7.90557 8.01017 7.96172C8.06632 8.01834 8.13313 8.06327 8.20674 8.09394C8.28035 8.12461 8.3593 8.1404 8.43904 8.1404C8.51878 8.1404 8.59773 8.12461 8.67134 8.09394C8.74495 8.06327 8.81176 8.01834 8.86791 7.96172L11.2116 5.612C11.7166 5.10386 12 4.41658 12 3.7002C12 2.98382 11.7166 2.29654 11.2116 1.7884V1.7884ZM4.04765 8.95235C4.10409 9.00834 4.17103 9.05263 4.24462 9.08269C4.31822 9.11275 4.39702 9.12798 4.47652 9.12752C4.55602 9.12798 4.63482 9.11275 4.70842 9.08269C4.78201 9.05263 4.84895 9.00834 4.90539 8.95235L7.87728 5.98046C7.99102 5.86672 8.05492 5.71245 8.05492 5.55159C8.05492 5.39073 7.99102 5.23646 7.87728 5.12272C7.76354 5.00898 7.60927 4.94508 7.44841 4.94508C7.28755 4.94508 7.13328 5.00898 7.01954 5.12272L4.04765 8.09461C3.99103 8.15076 3.9461 8.21757 3.91543 8.29118C3.88476 8.36479 3.86897 8.44374 3.86897 8.52348C3.86897 8.60322 3.88476 8.68217 3.91543 8.75578C3.9461 8.82939 3.99103 8.8962 4.04765 8.95235Z" fill="#A2A3AA"/>
</g>
<defs>
<clipPath id="clip0_122_64">
<rect width="12" height="13" fill="white"/>
</clipPath>
</defs>
</svg>
