<svg width="800" height="482" viewBox="0 0 800 482" fill="none" xmlns="http://www.w3.org/2000/svg">
<rect width="800" height="481.996" fill="#1DA1F2"/>
<g clip-path="url(#clip0_123_82)">
<path d="M379.907 282.57C421.794 282.57 444.704 247.722 444.704 217.502C444.704 216.512 444.704 215.527 444.638 214.542C449.095 211.306 452.942 207.299 456 202.709C451.844 204.558 447.434 205.771 442.92 206.307C447.674 203.449 451.232 198.954 452.932 193.659C448.461 196.322 443.571 198.2 438.471 199.209C435.037 195.543 430.496 193.115 425.55 192.302C420.604 191.488 415.529 192.335 411.11 194.709C406.691 197.084 403.174 200.855 401.105 205.439C399.035 210.023 398.528 215.164 399.661 220.066C390.607 219.611 381.749 217.248 373.663 213.131C365.577 209.015 358.444 203.237 352.726 196.173C349.814 201.207 348.922 207.167 350.231 212.838C351.541 218.51 354.954 223.467 359.776 226.7C356.152 226.592 352.607 225.611 349.44 223.838V224.128C349.441 229.408 351.262 234.524 354.592 238.61C357.922 242.696 362.557 245.5 367.711 246.545C364.358 247.464 360.84 247.598 357.428 246.938C358.883 251.482 361.716 255.455 365.531 258.303C369.346 261.15 373.952 262.729 378.704 262.819C370.64 269.183 360.678 272.638 350.421 272.628C348.609 272.624 346.799 272.514 345 272.298C355.415 279.009 367.533 282.569 379.907 282.553" fill="white"/>
</g>
<defs>
<clipPath id="clip0_123_82">
<rect width="111" height="91" fill="white" transform="translate(345 192)"/>
</clipPath>
</defs>
</svg>
